<svg xmlns="http://www.w3.org/2000/svg" width="38" height="38" viewBox="0 0 38 38">
  <path id="shopping-cart-solid" d="M34.841,22.364,37.96,6.926A1.74,1.74,0,0,0,36.416,4.75H10.5L9.9,1.424A1.642,1.642,0,0,0,8.347,0H1.583A1.691,1.691,0,0,0,0,1.781V2.969A1.691,1.691,0,0,0,1.583,4.75h4.61l4.634,25.489a4.268,4.268,0,0,0-1.856,3.6A3.946,3.946,0,0,0,12.667,38a3.946,3.946,0,0,0,3.694-4.156,4.411,4.411,0,0,0-1.11-2.969H29.082a4.411,4.411,0,0,0-1.11,2.969A3.946,3.946,0,0,0,31.667,38a3.946,3.946,0,0,0,3.694-4.156A4.226,4.226,0,0,0,33.278,30.1l.364-1.8A1.74,1.74,0,0,0,32.1,26.125H14.39l-.432-2.375H33.3A1.636,1.636,0,0,0,34.841,22.364Z"/>
</svg>
